<svg  viewBox="0 0 1249 34" fill="none" xmlns="http://www.w3.org/2000/svg">
<path d="M1219.29 0.267456C1203.64 0.267456 1203.64 14.2675 1188.09 14.2675C1172.55 14.2675 1172.44 0.267456 1156.9 0.267456C1141.35 0.267456 1141.25 14.2675 1125.7 14.2675C1110.05 14.2675 1110.05 0.267456 1094.4 0.267456C1078.75 0.267456 1078.75 14.2675 1063.2 14.2675C1047.55 14.2675 1047.55 0.267456 1032.01 0.267456C1016.35 0.267456 1016.35 14.2675 1000.81 14.2675C985.267 14.2675 984.832 0.267456 969.289 0.267456C953.637 0.267456 953.637 14.2675 938.093 14.2675C922.55 14.2675 922.332 0.267456 906.789 0.267456C891.137 0.267456 891.137 14.2675 875.593 14.2675C859.941 14.2675 859.941 0.267456 844.289 0.267456C828.637 0.267456 828.637 14.2675 813.093 14.2675C797.441 14.2675 797.441 0.267456 781.898 0.267456C766.354 0.267456 766.137 14.2675 750.485 14.2675C734.832 14.2675 734.832 0.267456 719.289 0.267456C703.637 0.267456 703.637 14.2675 688.093 14.2675C672.441 14.2675 672.441 0.267456 656.789 0.267456C641.137 0.267456 641.137 14.2675 625.593 14.2675C609.941 14.2675 609.941 0.267456 594.398 0.267456C578.746 0.267456 578.745 14.2675 563.202 14.2675C547.55 14.2675 547.55 0.267456 532.006 0.267456C516.354 0.267456 516.354 14.2675 500.702 14.2675C485.05 14.2675 485.05 0.267456 469.398 0.267456C453.745 0.267456 453.745 14.2675 438.093 14.2675C422.441 14.2675 422.441 0.267456 406.789 0.267456C391.137 0.267456 391.137 14.2675 375.485 14.2675C359.832 14.2675 359.832 0.267456 344.18 0.267456C328.528 0.267456 328.528 14.2675 312.876 14.2675C297.224 14.2675 297.224 0.267456 281.572 0.267456C265.919 0.267456 265.919 14.2675 250.376 14.2675C234.724 14.2675 234.724 0.267456 219.072 0.267456C203.419 0.267456 203.419 14.2675 187.767 14.2675C172.115 14.2675 172.115 0.267456 156.463 0.267456C140.811 0.267456 140.811 14.2675 125.159 14.2675C109.506 14.2675 109.506 0.267456 93.8542 0.267456C78.6368 0.267456 78.6368 14.2675 62.9846 14.2675C47.3324 14.2675 47.3324 0.267456 31.789 0.267456C16.2455 0.267456 16.1368 14.2675 0.484619 14.2675V34.2675H1250.48V14.2675C1234.83 14.2675 1234.83 0.267456 1219.29 0.267456Z" fill="white"/>
</svg>
