<svg viewBox="0 0 1249 34" fill="none" xmlns="http://www.w3.org/2000/svg"><path d="M1219.29.267c-15.65 0-15.65 14-31.2 14-15.54 0-15.65-14-31.19-14-15.55 0-15.65 14-31.2 14-15.65 0-15.65-14-31.3-14s-15.65 14-31.2 14c-15.65 0-15.65-14-31.19-14-15.66 0-15.66 14-31.2 14-15.543 0-15.978-14-31.521-14-15.652 0-15.652 14-31.196 14-15.543 0-15.761-14-31.304-14-15.652 0-15.652 14-31.196 14-15.652 0-15.652-14-31.304-14s-15.652 14-31.196 14c-15.652 0-15.652-14-31.195-14-15.544 0-15.761 14-31.413 14-15.653 0-15.653-14-31.196-14-15.652 0-15.652 14-31.196 14-15.652 0-15.652-14-31.304-14s-15.652 14-31.196 14c-15.652 0-15.652-14-31.195-14-15.652 0-15.653 14-31.196 14-15.652 0-15.652-14-31.196-14-15.652 0-15.652 14-31.304 14s-15.652-14-31.304-14c-15.653 0-15.653 14-31.305 14s-15.652-14-31.304-14-15.652 14-31.304 14c-15.653 0-15.653-14-31.305-14s-15.652 14-31.304 14-15.652-14-31.304-14c-15.653 0-15.653 14-31.196 14-15.652 0-15.652-14-31.304-14-15.653 0-15.653 14-31.305 14s-15.652-14-31.304-14-15.652 14-31.304 14c-15.653 0-15.653-14-31.305-14-15.217 0-15.217 14-30.87 14-15.652 0-15.652-14-31.195-14-15.544 0-15.652 14-31.304 14v20H1250.48v-20c-15.65 0-15.65-14-31.19-14Z" fill="#fff"/></svg>